<mxfile host="app.diagrams.net" modified="2023-12-31T18:15:38.534Z" agent="Mozilla/5.0 (X11; Linux x86_64) AppleWebKit/537.36 (KHTML, like Gecko) Chrome/119.0.0.0 Safari/537.36" etag="PWkuzCIg3kk8n2MR_lDY" version="22.1.16" type="device">
  <diagram name="Page-1" id="P1ijlT_YHz3aUoc8OBus">
    <mxGraphModel dx="1077" dy="1119" grid="1" gridSize="10" guides="1" tooltips="1" connect="1" arrows="1" fold="1" page="1" pageScale="1" pageWidth="850" pageHeight="1100" math="0" shadow="0">
      <root>
        <mxCell id="0" />
        <mxCell id="1" parent="0" />
        <mxCell id="G9_Siqq_H4ijIuiFQU1F-11" style="edgeStyle=orthogonalEdgeStyle;rounded=0;orthogonalLoop=1;jettySize=auto;html=1;exitX=0;exitY=0.5;exitDx=0;exitDy=0;entryX=0.5;entryY=0;entryDx=0;entryDy=0;" edge="1" parent="1" source="G9_Siqq_H4ijIuiFQU1F-1" target="G9_Siqq_H4ijIuiFQU1F-3">
          <mxGeometry relative="1" as="geometry" />
        </mxCell>
        <mxCell id="G9_Siqq_H4ijIuiFQU1F-13" style="edgeStyle=orthogonalEdgeStyle;rounded=0;orthogonalLoop=1;jettySize=auto;html=1;exitX=0.5;exitY=1;exitDx=0;exitDy=0;entryX=0.5;entryY=0;entryDx=0;entryDy=0;" edge="1" parent="1" source="G9_Siqq_H4ijIuiFQU1F-1" target="G9_Siqq_H4ijIuiFQU1F-12">
          <mxGeometry relative="1" as="geometry" />
        </mxCell>
        <mxCell id="G9_Siqq_H4ijIuiFQU1F-18" style="edgeStyle=orthogonalEdgeStyle;rounded=0;orthogonalLoop=1;jettySize=auto;html=1;exitX=0;exitY=0.25;exitDx=0;exitDy=0;entryX=0.5;entryY=0;entryDx=0;entryDy=0;" edge="1" parent="1" source="G9_Siqq_H4ijIuiFQU1F-1" target="G9_Siqq_H4ijIuiFQU1F-16">
          <mxGeometry relative="1" as="geometry" />
        </mxCell>
        <mxCell id="G9_Siqq_H4ijIuiFQU1F-1" value="GraphQL Server" style="rounded=0;whiteSpace=wrap;html=1;fillColor=#b0e3e6;strokeColor=#0e8088;" vertex="1" parent="1">
          <mxGeometry x="310" y="350" width="120" height="60" as="geometry" />
        </mxCell>
        <mxCell id="G9_Siqq_H4ijIuiFQU1F-8" style="edgeStyle=orthogonalEdgeStyle;rounded=0;orthogonalLoop=1;jettySize=auto;html=1;exitX=0.5;exitY=1;exitDx=0;exitDy=0;entryX=0.5;entryY=0;entryDx=0;entryDy=0;" edge="1" parent="1" source="G9_Siqq_H4ijIuiFQU1F-2" target="G9_Siqq_H4ijIuiFQU1F-5">
          <mxGeometry relative="1" as="geometry" />
        </mxCell>
        <mxCell id="G9_Siqq_H4ijIuiFQU1F-10" style="edgeStyle=orthogonalEdgeStyle;rounded=0;orthogonalLoop=1;jettySize=auto;html=1;exitX=0.5;exitY=1;exitDx=0;exitDy=0;entryX=0.5;entryY=0;entryDx=0;entryDy=0;" edge="1" parent="1" source="G9_Siqq_H4ijIuiFQU1F-2" target="G9_Siqq_H4ijIuiFQU1F-1">
          <mxGeometry relative="1" as="geometry" />
        </mxCell>
        <mxCell id="G9_Siqq_H4ijIuiFQU1F-2" value="Load Balancer" style="rounded=0;whiteSpace=wrap;html=1;fillColor=#FA8155;strokeColor=#ae4132;" vertex="1" parent="1">
          <mxGeometry x="400" y="150" width="120" height="60" as="geometry" />
        </mxCell>
        <mxCell id="G9_Siqq_H4ijIuiFQU1F-23" style="edgeStyle=orthogonalEdgeStyle;rounded=0;orthogonalLoop=1;jettySize=auto;html=1;exitX=0.5;exitY=1;exitDx=0;exitDy=0;entryX=0.5;entryY=0;entryDx=0;entryDy=0;" edge="1" parent="1" source="G9_Siqq_H4ijIuiFQU1F-3" target="G9_Siqq_H4ijIuiFQU1F-22">
          <mxGeometry relative="1" as="geometry" />
        </mxCell>
        <mxCell id="G9_Siqq_H4ijIuiFQU1F-3" value="Message Queue&lt;br&gt;(ZeroMQ)" style="rounded=0;whiteSpace=wrap;html=1;" vertex="1" parent="1">
          <mxGeometry x="180" y="455" width="120" height="60" as="geometry" />
        </mxCell>
        <mxCell id="G9_Siqq_H4ijIuiFQU1F-15" style="edgeStyle=orthogonalEdgeStyle;rounded=0;orthogonalLoop=1;jettySize=auto;html=1;exitX=0.5;exitY=1;exitDx=0;exitDy=0;entryX=0.5;entryY=0;entryDx=0;entryDy=0;" edge="1" parent="1" source="G9_Siqq_H4ijIuiFQU1F-4" target="G9_Siqq_H4ijIuiFQU1F-14">
          <mxGeometry relative="1" as="geometry" />
        </mxCell>
        <mxCell id="G9_Siqq_H4ijIuiFQU1F-4" value="HTTP Server" style="rounded=0;whiteSpace=wrap;html=1;fillColor=#b0e3e6;strokeColor=#0e8088;" vertex="1" parent="1">
          <mxGeometry x="490" y="350" width="120" height="60" as="geometry" />
        </mxCell>
        <mxCell id="G9_Siqq_H4ijIuiFQU1F-9" style="edgeStyle=orthogonalEdgeStyle;rounded=0;orthogonalLoop=1;jettySize=auto;html=1;exitX=0.5;exitY=1;exitDx=0;exitDy=0;entryX=0.5;entryY=0;entryDx=0;entryDy=0;" edge="1" parent="1" source="G9_Siqq_H4ijIuiFQU1F-5" target="G9_Siqq_H4ijIuiFQU1F-4">
          <mxGeometry relative="1" as="geometry" />
        </mxCell>
        <mxCell id="G9_Siqq_H4ijIuiFQU1F-5" value="HTTP Cache&lt;br&gt;(Varnish)" style="rounded=0;whiteSpace=wrap;html=1;fillColor=#FA8155;strokeColor=#ae4132;" vertex="1" parent="1">
          <mxGeometry x="490" y="250" width="120" height="60" as="geometry" />
        </mxCell>
        <mxCell id="G9_Siqq_H4ijIuiFQU1F-7" style="edgeStyle=orthogonalEdgeStyle;rounded=0;orthogonalLoop=1;jettySize=auto;html=1;entryX=0.5;entryY=0;entryDx=0;entryDy=0;" edge="1" parent="1" source="G9_Siqq_H4ijIuiFQU1F-6" target="G9_Siqq_H4ijIuiFQU1F-2">
          <mxGeometry relative="1" as="geometry" />
        </mxCell>
        <mxCell id="G9_Siqq_H4ijIuiFQU1F-26" style="edgeStyle=orthogonalEdgeStyle;rounded=0;orthogonalLoop=1;jettySize=auto;html=1;exitX=0;exitY=0.5;exitDx=0;exitDy=0;entryX=1;entryY=0.5;entryDx=0;entryDy=0;" edge="1" parent="1" source="G9_Siqq_H4ijIuiFQU1F-6" target="G9_Siqq_H4ijIuiFQU1F-25">
          <mxGeometry relative="1" as="geometry" />
        </mxCell>
        <mxCell id="G9_Siqq_H4ijIuiFQU1F-6" value="Client" style="rounded=0;whiteSpace=wrap;html=1;fillColor=#ffe6cc;strokeColor=#d79b00;" vertex="1" parent="1">
          <mxGeometry x="400" y="30" width="120" height="60" as="geometry" />
        </mxCell>
        <mxCell id="G9_Siqq_H4ijIuiFQU1F-12" value="Database&lt;br&gt;(PostgreSQL)" style="shape=datastore;whiteSpace=wrap;html=1;fillColor=#d0cee2;strokeColor=#56517e;" vertex="1" parent="1">
          <mxGeometry x="440" y="480" width="120" height="120" as="geometry" />
        </mxCell>
        <mxCell id="G9_Siqq_H4ijIuiFQU1F-14" value="Static Files&lt;br&gt;(S3)" style="shape=datastore;whiteSpace=wrap;html=1;fillColor=#d0cee2;strokeColor=#56517e;" vertex="1" parent="1">
          <mxGeometry x="620" y="480" width="120" height="120" as="geometry" />
        </mxCell>
        <mxCell id="G9_Siqq_H4ijIuiFQU1F-20" style="edgeStyle=orthogonalEdgeStyle;rounded=0;orthogonalLoop=1;jettySize=auto;html=1;exitX=0.5;exitY=1;exitDx=0;exitDy=0;entryX=0.5;entryY=0;entryDx=0;entryDy=0;" edge="1" parent="1" source="G9_Siqq_H4ijIuiFQU1F-16" target="G9_Siqq_H4ijIuiFQU1F-19">
          <mxGeometry relative="1" as="geometry" />
        </mxCell>
        <mxCell id="G9_Siqq_H4ijIuiFQU1F-16" value="Notification Server" style="rounded=0;whiteSpace=wrap;html=1;fillColor=#bac8d3;strokeColor=#23445d;" vertex="1" parent="1">
          <mxGeometry x="30" y="455" width="120" height="60" as="geometry" />
        </mxCell>
        <mxCell id="G9_Siqq_H4ijIuiFQU1F-19" value="SendGrid / Twilio" style="ellipse;whiteSpace=wrap;html=1;aspect=fixed;fillColor=#FFB0B3;strokeColor=#36393d;" vertex="1" parent="1">
          <mxGeometry x="50" y="565" width="80" height="80" as="geometry" />
        </mxCell>
        <mxCell id="G9_Siqq_H4ijIuiFQU1F-22" value="Executor&lt;br&gt;(Lambda)" style="rounded=0;whiteSpace=wrap;html=1;fillColor=#bac8d3;strokeColor=#23445d;" vertex="1" parent="1">
          <mxGeometry x="180" y="565" width="120" height="60" as="geometry" />
        </mxCell>
        <mxCell id="G9_Siqq_H4ijIuiFQU1F-25" value="CDN" style="ellipse;whiteSpace=wrap;html=1;aspect=fixed;fillColor=#FFB0B3;" vertex="1" parent="1">
          <mxGeometry x="180" y="20" width="80" height="80" as="geometry" />
        </mxCell>
      </root>
    </mxGraphModel>
  </diagram>
</mxfile>
